PathFileType	4	(X/Y/Z)	./resultDataOpenSim/trcMotMarkerGrf/sub09/qtm-13-05.trc
DataRate	CameraRate	NumFrames	NumMarkers	Units	OrigDataRate	OrigDataStartFrame	OrigNumFrames
250.000000	250.000000	12	24	m	250.000000	379	504
Frame#	Time	L.Toe.Tip			R.Toe.Tip			L.Ankle.Lat			R.Ankle.Lat			L.Ankle.Med			R.Ankle.Med			L.Heel			R.Heel			L.Knee.Lat			R.Knee.Lat			L.Knee.Med			R.Knee.Med			L.Thigh.Upper			R.Thigh.Upper			L.ASIS			R.ASIS			V.Sacral			L.Acromium			R.Acromium			C7			L.Elbow			R.Elbow			L.Wrist.Lat			R.Wrist.Lat
		X1	Y1	Z1	X2	Y2	Z2	X3	Y3	Z3	X4	Y4	Z4	X5	Y5	Z5	X6	Y6	Z6	X7	Y7	Z7	X8	Y8	Z8	X9	Y9	Z9	X10	Y10	Z10	X11	Y11	Z11	X12	Y12	Z12	X13	Y13	Z13	X14	Y14	Z14	X15	Y15	Z15	X16	Y16	Z16	X17	Y17	Z17	X18	Y18	Z18	X19	Y19	Z19	X20	Y20	Z20	X21	Y21	Z21	X22	Y22	Z22	X23	Y23	Z23	X24	Y24	Z24

379	1.512	0.91927049	0.12443758	-0.07557611	1.1255886	0.039679009	0.061808385	0.85315717	0.26555284	-0.10766524	0.97797417	0.055739979	0.095335738	0.87879585	0.25566342	-0.01205578	0.99233447	0.098425502	0.0052100627	0.77565468	0.28857173	-0.060060531	0.90759438	0.037287947	0.04656172	1.171297	0.51859088	-0.12342775	1.0858516	0.5001697	0.15740573	1.174142	0.50830294	0.0038579585	1.0654228	0.49071683	0.031681867	0.98695399	0.8894107	-0.14879914	1.0043056	0.90093597	0.22194169	1.0591718	0.97800656	-0.094290059	1.0869087	0.98480136	0.1416255	0.90509985	1.0371538	0.036573338	1.0634373	1.4291764	-0.14674143	1.0723435	1.4471334	0.18346035	1.002022	1.4885328	0.021996518	0.89985719	1.0982907	-0.19799562	0.93166404	1.1145549	0.29041925	1.0362846	0.8687682	-0.22938218	1.0933174	0.89066284	0.28676771
380	1.516	0.93671469	0.12256902	-0.076657497	1.1256485	0.039664805	0.061761289	0.8666323	0.26169613	-0.10789099	0.97811093	0.055858705	0.095149947	0.89330698	0.25193421	-0.012588405	0.99259371	0.098477781	0.0050318532	0.78847144	0.28248859	-0.060089413	0.90773758	0.037570584	0.046326536	1.1800835	0.52113446	-0.12309154	1.0873449	0.49994315	0.15718189	1.1835221	0.51080757	0.0042417788	1.067125	0.49050088	0.031712238	0.99246839	0.89031256	-0.14919492	1.0089046	0.90124282	0.22172795	1.0642643	0.97901328	-0.094417693	1.0917907	0.9852374	0.1415456	0.91007393	1.0376815	0.036420346	1.067856	1.4298109	-0.14698018	1.0769925	1.4480342	0.18321255	1.0065827	1.4891845	0.021799976	0.90425773	1.0989978	-0.19793596	0.93668414	1.1152129	0.29031406	1.040299	0.86936672	-0.23009237	1.0987338	0.89163143	0.28610841
381	1.52	0.95415782	0.12061831	-0.077607453	1.1256992	0.039633449	0.061721028	0.88022324	0.25762681	-0.1081223	0.97825549	0.055970519	0.094982392	0.90793475	0.24808362	-0.013128566	0.99284242	0.098520121	0.0048713216	0.801455	0.27618072	-0.060132307	0.90787112	0.037821968	0.046181605	1.1885638	0.52358362	-0.12281488	1.0887843	0.49966576	0.15700046	1.1925838	0.51325633	0.0044990505	1.0689217	0.49023278	0.031803202	0.99786913	0.89114134	-0.14956457	1.0135081	0.90151455	0.22151147	1.0693513	0.97996129	-0.094559636	1.096649	0.98562945	0.14147799	0.9150407	1.0381578	0.036254857	1.072282	1.4303939	-0.14721917	1.0816579	1.4489036	0.1829635	1.0111429	1.4897789	0.021610087	0.90868198	1.0996527	-0.19788361	0.94168871	1.1158137	0.29020397	1.0443373	0.8699123	-0.23079266	1.1040874	0.89253326	0.28548364
382	1.524	0.97164467	0.11861312	-0.078417792	1.1257279	0.039577231	0.06169355	0.89393448	0.25334541	-0.10835355	0.9784082	0.056085136	0.094842994	0.92244237	0.24412814	-0.013602534	0.99305925	0.098575499	0.0047514902	0.81463714	0.26968219	-0.060247374	0.90808533	0.038016559	0.046157367	1.196811	0.52592668	-0.12258664	1.090265	0.49935993	0.15692006	1.201184	0.51561883	0.0045974361	1.070712	0.48995183	0.031848875	1.0032094	0.89190556	-0.14990766	1.0181331	0.90176021	0.22129016	1.0744348	0.98084931	-0.09470968	1.1014712	0.9859816	0.14143493	0.91999148	1.0385887	0.036082079	1.0767225	1.4309429	-0.1474727	1.0863205	1.4496927	0.18271799	1.0157133	1.4903328	0.021421172	0.91315236	1.1002965	-0.19781339	0.94667193	1.1163534	0.29008549	1.0483977	0.87040178	-0.23147854	1.1094164	0.8933733	0.28487943
383	1.528	0.98921942	0.11656218	-0.079075762	1.1257389	0.039504162	0.061677969	0.90778607	0.24886358	-0.10859202	0.97856403	0.056211928	0.094727056	0.93677291	0.2400794	-0.013985739	0.99331955	0.098682345	0.0046675705	0.82806658	0.26301347	-0.060497582	0.90839013	0.038167749	0.046212676	1.2048481	0.5281579	-0.12241039	1.0919416	0.49904564	0.15698004	1.2094048	0.51787127	0.004579561	1.0724086	0.48971108	0.031804816	1.0085473	0.89261194	-0.15022574	1.0227924	0.90198599	0.22105767	1.0795174	0.98167537	-0.094864873	1.1062558	0.98629989	0.14141184	0.92492604	1.0389807	0.03589952	1.081186	1.4314717	-0.14776198	1.09095	1.4503791	0.18248442	1.0202926	1.4908491	0.021226294	0.91769883	1.1009622	-0.1976973	0.95163295	1.1168342	0.28995655	1.0524835	0.87083264	-0.23214376	1.1147466	0.8941512	0.2842795
384	1.532	1.0069532	0.1144493	-0.079607044	1.1257637	0.039434979	0.061657992	0.92180693	0.24420342	-0.10884625	0.97870979	0.056355027	0.094619813	0.95103611	0.23594091	-0.014304254	0.99368864	0.098852131	0.0046012529	0.84176044	0.25618507	-0.060896149	0.90868598	0.038324896	0.046240348	1.2126823	0.53026737	-0.12229021	1.0939982	0.49873101	0.15715798	1.217351	0.52000752	0.0044898598	1.0739932	0.48954293	0.031718206	1.0139101	0.89326391	-0.15052842	1.0274895	0.90219446	0.22080728	1.0845981	0.98243797	-0.095020245	1.1110197	0.98659151	0.1413918	0.92985656	1.0393319	0.03569949	1.0856712	1.4319699	-0.14808329	1.09554	1.4509797	0.182266	1.024869	1.4913165	0.021021764	0.92231369	1.1016202	-0.19755215	0.95657559	1.1172626	0.28981726	1.0565978	0.87120557	-0.23279294	1.1200743	0.8948627	0.28367945
385	1.536	1.0248727	0.11224656	-0.080054745	1.1258387	0.039385099	0.061611387	0.9359999	0.23938864	-0.10911601	0.97883028	0.056513366	0.094508782	0.9653595	0.23171325	-0.014597931	0.9940442	0.099039548	0.0045298457	0.85565752	0.24922186	-0.061370265	0.90888666	0.038518139	0.046152192	1.220408	0.53222041	-0.12220678	1.0965155	0.49841476	0.15736116	1.2250883	0.52202222	0.0043539531	1.0754952	0.48944732	0.031644565	1.0193018	0.89386034	-0.15083547	1.0322199	0.90238853	0.22053599	1.0896768	0.98313849	-0.095170584	1.115786	0.98685986	0.14136048	0.93479564	1.0396336	0.035475504	1.0901654	1.4324076	-0.14840128	1.1001215	1.4515155	0.18205491	1.0294325	1.4917318	0.020804751	0.92694346	1.1021933	-0.19745063	0.96149559	1.117642	0.28966569	1.0607388	0.87152685	-0.23343906	1.1253856	0.89550679	0.2830849
386	1.54	1.0429122	0.1099452	-0.080439969	1.1259711	0.039353957	0.061531385	0.95033935	0.23443709	-0.1093926	0.97892141	0.056683883	0.094390045	0.9798045	0.22740119	-0.014882923	0.99416881	0.099174782	0.0044053093	0.86968614	0.24214839	-0.06181957	0.90899835	0.038733701	0.045942095	1.228155	0.53398235	-0.12212224	1.0992822	0.49809728	0.15749064	1.2326501	0.52390694	0.0041853661	1.0769784	0.48939563	0.031593112	1.0247169	0.89439699	-0.15116162	1.0369752	0.90257261	0.22024512	1.0947605	0.98378006	-0.095316925	1.1205655	0.9871061	0.14131465	0.93974346	1.0398804	0.035224391	1.0946575	1.4327672	-0.14868444	1.1047354	1.4519916	0.18184162	1.033967	1.4921072	0.020567336	0.9315417	1.1026373	-0.19744997	0.96637169	1.1179675	0.28949329	1.064903	0.87180267	-0.23408953	1.1306726	0.89608837	0.28250326
387	1.544	1.0609531	0.10757103	-0.080752184	1.12613	0.03932613	0.061433349	0.96480757	0.22936009	-0.1096645	0.97899583	0.056864254	0.094262	0.99438239	0.22301533	-0.015149727	0.99404988	0.099244506	0.0041937572	0.88386908	0.23496382	-0.062217789	0.90907722	0.03895361	0.045667549	1.2358948	0.53557401	-0.12202477	1.1018517	0.49779105	0.15751167	1.2400504	0.52565536	0.0039909535	1.0785525	0.4893375	0.031545383	1.0301435	0.89487249	-0.15150163	1.0417468	0.90274947	0.2199398	1.0998555	0.98436361	-0.095460775	1.1253519	0.98733481	0.14126074	0.94469207	1.0400745	0.034946663	1.0991471	1.4330582	-0.14893009	1.1093905	1.4524093	0.18162623	1.0384637	1.4924512	0.020306817	0.93610847	1.1029709	-0.1975413	0.97118874	1.1182302	0.28929208	1.0690887	0.87203203	-0.23474001	1.1359389	0.8966138	0.2819386
388	1.548	1.0788909	0.10517897	-0.080966391	1.1262688	0.039284264	0.061340055	0.97940786	0.22416694	-0.10992124	0.97907087	0.057052428	0.094116168	1.0090734	0.21856842	-0.015381482	0.99392819	0.099309338	0.0039347199	0.89828872	0.22765518	-0.06261382	0.9091645	0.039186277	0.04538958	1.2434278	0.53705573	-0.12194735	1.1039294	0.49751022	0.1574486	1.2472858	0.52726171	0.0037722028	1.0803139	0.48922502	0.031488947	1.0355696	0.89529437	-0.15183813	1.0465277	0.90291775	0.21962655	1.104964	0.98488821	-0.095600007	1.1301333	0.98755319	0.14120701	0.9496389	1.0402215	0.034647488	1.1036414	1.4332971	-0.14915294	1.1140591	1.4527738	0.18141225	1.0429649	1.4927533	0.020046169	0.94067385	1.1032308	-0.19768126	0.97596861	1.1184298	0.28906673	1.0732957	0.87220902	-0.23538121	1.1411984	0.89708492	0.28138908
389	1.552	1.0967103	0.10283494	-0.081069273	1.1263564	0.0392305	0.061267303	0.99414497	0.2188711	-0.11015535	0.97915347	0.057243415	0.093936914	1.0238404	0.21407049	-0.015568895	0.99400608	0.099427065	0.0036944389	0.91296527	0.22022597	-0.063046376	0.90925849	0.039447243	0.04511505	1.2505787	0.53846138	-0.1219319	1.1056466	0.49726355	0.15733752	1.2543527	0.52871962	0.0035310733	1.0822312	0.48905058	0.031431099	1.0409948	0.89567455	-0.1521636	1.0513116	0.90307506	0.21930942	1.1100891	0.98535462	-0.095731891	1.1349035	0.98776374	0.14115869	0.95458906	1.0403255	0.03433501	1.1081487	1.4334926	-0.14936732	1.1187103	1.45309	0.18119756	1.0475371	1.492996	0.019819823	0.94526455	1.1034339	-0.19783703	0.98076185	1.118574	0.28883445	1.0775248	0.87232932	-0.2360093	1.1464643	0.89749881	0.28084866
390	1.556	1.1145166	0.10057373	-0.08107676	1.1263813	0.039187003	0.061223793	1.0090129	0.21349224	-0.11036179	0.97923987	0.05742911	0.093712158	1.0386697	0.20952424	-0.015720521	0.99426991	0.099600374	0.0034860142	0.92784505	0.21269307	-0.063499677	0.90932008	0.039739932	0.044786038	1.2573556	0.53976967	-0.1219905	1.1073467	0.49705869	0.15720338	1.2612865	0.5300277	0.0032753574	1.0841684	0.4888417	0.031389677	1.0464296	0.89601717	-0.15248779	1.0560888	0.90322186	0.21898941	1.115236	0.98576446	-0.095855488	1.1396618	0.98796077	0.14112066	0.95954478	1.0403898	0.034012538	1.1126745	1.4336458	-0.14958241	1.1233368	1.4533602	0.18098112	1.0521736	1.493184	0.019626876	0.94989033	1.1035808	-0.19799816	0.985599	1.1186707	0.2886073	1.0817785	0.87239333	-0.23663159	1.1517331	0.8978523	0.28031568
